<svg id="Laag_1" data-name="Laag 1" xmlns="http://www.w3.org/2000/svg" viewBox="0 0 141 141"><defs><style>.cls-1{fill:#39b54a;}.cls-2{fill:#fff;}</style></defs><title>facebook</title><circle class="cls-1" cx="70.5" cy="70.5" r="70.5"/><path class="cls-2" d="M982.4,315.1H971.2c-12.6,0-20.8,8.4-20.8,21.3v9.8H939.1a1.8,1.8,0,0,0-1.8,1.8v14.2a1.8,1.8,0,0,0,1.8,1.8h11.3v35.9a1.8,1.8,0,0,0,1.8,1.8h14.7a1.8,1.8,0,0,0,1.8-1.8V364h13.2a1.8,1.8,0,0,0,1.8-1.8V348a1.8,1.8,0,0,0-1.8-1.8H968.7v-8.3c0-4,1-6,6.2-6h7.6a1.8,1.8,0,0,0,1.8-1.8V316.8A1.8,1.8,0,0,0,982.4,315.1Z" transform="translate(-892 -287.8)"/></svg>