<svg id="Laag_1" data-name="Laag 1" xmlns="http://www.w3.org/2000/svg" viewBox="0 0 141 141"><defs><style>.cls-1{fill:#39b54a;}.cls-2{fill:#fff;}</style></defs><title>instagram</title><circle class="cls-1" cx="70.5" cy="70.5" r="70.5"/><path class="cls-2" d="M1165.3,310.2h-58.5a9.9,9.9,0,0,0-9.9,9.9v58.5a9.9,9.9,0,0,0,9.9,9.9h58.5a9.9,9.9,0,0,0,9.9-9.9V320A9.9,9.9,0,0,0,1165.3,310.2ZM1136,337.8a11.5,11.5,0,1,1-11.5,11.5A11.5,11.5,0,0,1,1136,337.8Zm30,36.5a5.2,5.2,0,0,1-5.3,4.9h-49.3c-2.7,0-5.4-2.2-5.4-4.9V349.7c0-2.7,2.7-5,5.4-5h2.7a1.8,1.8,0,0,1,1.8,2,19.4,19.4,0,0,0-.2,2.5,20.2,20.2,0,0,0,40.4,0,19.5,19.5,0,0,0-.2-2.5,1.8,1.8,0,0,1,1.8-2h2.9a5.2,5.2,0,0,1,5.3,5v24.7h0Zm0-45.5h0a4.9,4.9,0,0,1-4.9,4.9h-4.7a4.9,4.9,0,0,1-4.9-4.9v-4.7a4.9,4.9,0,0,1,4.9-4.9h4.7a4.9,4.9,0,0,1,4.9,4.9v4.7Z" transform="translate(-1064.5 -277.8)"/></svg>