<svg id="Laag_1" data-name="Laag 1" xmlns="http://www.w3.org/2000/svg" viewBox="0 0 141 141"><defs><style>.cls-1{fill:#39b54a;}.cls-2{fill:#fff;}</style></defs><title>twitter</title><circle class="cls-1" cx="70.5" cy="70.5" r="70.5"/><path class="cls-2" d="M1006.1,519a33.9,33.9,0,0,1-9.7,2.7,17,17,0,0,0,7.5-9.4,34,34,0,0,1-10.8,4.1,17,17,0,0,0-28.9,15.5,48.2,48.2,0,0,1-35-17.7,17,17,0,0,0,5.2,22.6,16.9,16.9,0,0,1-7.7-2.1c0,0.1,0,.1,0,0.2a17,17,0,0,0,13.6,16.6,17,17,0,0,1-7.7.3,17,17,0,0,0,15.8,11.8,34,34,0,0,1-21.1,7.3l-4-.2a48,48,0,0,0,26,7.6c31.2,0,48.3-25.8,48.3-48.3q0-1.1,0-2.2A34.5,34.5,0,0,0,1006.1,519Z" transform="translate(-892 -470.6)"/></svg>