<svg id="Laag_1" data-name="Laag 1" xmlns="http://www.w3.org/2000/svg" xmlns:xlink="http://www.w3.org/1999/xlink" viewBox="0 0 141 172.2"><defs><style>.cls-1{fill:none;}.cls-2{fill:#39b54a;}.cls-3{clip-path:url(#clip-path);}.cls-4{fill:#fff;}</style><clipPath id="clip-path" transform="translate(-698.6 -470.6)"><circle class="cls-1" cx="769.1" cy="541.1" r="70.5"/></clipPath></defs><title>bestek</title><circle class="cls-2" cx="70.5" cy="70.5" r="70.5"/><g class="cls-3"><path id="mes" class="cls-4" d="M789.9,589.3H797v46.3s-0.3,7.1,7.5,7.1,7.6-6.9,7.6-6.9V516.2s-0.7-10.3-11.1-10.3-11.1,10-11.1,10v73.4Z" transform="translate(-698.6 -470.6)"/><path id="vork" class="cls-4" d="M761.3,563.9v69.6s0.4,6.5,6.5,5.9,6.9-3.9,6.9-5.6V563.9s8.1-1.3,8.6-7.5V515.9a2.7,2.7,0,0,0-2.3-1.8,2.2,2.2,0,0,0-2.4,1.7c0,0.5,0,28.8,0,28.8h-4V515.9a2.4,2.4,0,0,0-2.3-1.8,2.1,2.1,0,0,0-2.3,1.8c0,0.3,0,28.8,0,28.8h-3.9V515.9a2.6,2.6,0,0,0-2.3-1.8,2.4,2.4,0,0,0-2.5,1.7v28.9h-3.7V515.9a2.5,2.5,0,0,0-2.4-1.8,2.3,2.3,0,0,0-2.5,1.7v40.7S753.1,562.5,761.3,563.9Z" transform="translate(-698.6 -470.6)"/></g></svg>