<svg id="Laag_1" data-name="Laag 1" xmlns="http://www.w3.org/2000/svg" viewBox="0 0 141 141"><defs><style>.cls-1{fill:#39b54a;}.cls-2{fill:#fff;}</style></defs><title>betalen</title><circle class="cls-1" cx="70.5" cy="70.5" r="70.5"/><path class="cls-2" d="M806.3,714.8l-34.5-34.5a7,7,0,0,0-9.8,0l-18.9,18.9a7.1,7.1,0,0,0,0,9.9l3.1,3.2h7.2l-6.7-6.8a1.9,1.9,0,0,1-.5-1.4,1.9,1.9,0,0,1,.5-1.3l2.5-2.4,11.9,11.9h11.4l-17.5-17.6L765.6,684a1.9,1.9,0,0,1,1.3-.6,1.8,1.8,0,0,1,1.3.5l34.5,34.5a1.8,1.8,0,0,1,.5,1.3,2,2,0,0,1-.6,1.3l-2,1.9v7.2l5.6-5.5A7,7,0,0,0,806.3,714.8Z" transform="translate(-700.5 -649.5)"/><path class="cls-2" d="M790.1,715.6H741.3a7.1,7.1,0,0,0-7.1,6.9V741H797V722.6A6.9,6.9,0,0,0,790.1,715.6Zm-38.9,19.1a5,5,0,0,0-7,0A9.3,9.3,0,1,1,751.3,734.7Z" transform="translate(-700.5 -649.5)"/><path class="cls-2" d="M734.2,749.3a7.1,7.1,0,0,0,7.1,7h48.8a6.9,6.9,0,0,0,6.9-7v-0.4H734.2v0.4Z" transform="translate(-700.5 -649.5)"/></svg>