<svg id="Laag_1" data-name="Laag 1" xmlns="http://www.w3.org/2000/svg" viewBox="0 0 141 141"><defs><style>.cls-1{fill:#39b54a;}.cls-2{fill:#fff;}</style></defs><title>email</title><circle class="cls-1" cx="70.5" cy="70.5" r="70.5"/><path class="cls-2" d="M557.7,334a5.4,5.4,0,0,1,1.9-.4h63.6a5.4,5.4,0,0,1,1.9.4l-28.5,26.8a7.5,7.5,0,0,1-10.3,0Zm70,47.7a5.3,5.3,0,0,0,.8-2.8V339a5.4,5.4,0,0,0-.4-2l-26.7,25.1ZM599,364.3a11.8,11.8,0,0,1-15.4,0l-26.2,19.5a5.4,5.4,0,0,0,2.1.4h63.6a5.4,5.4,0,0,0,2.1-.4ZM554.5,337a5.4,5.4,0,0,0-.4,2v39.9a5.3,5.3,0,0,0,.8,2.8l26.3-19.6Z" transform="translate(-520.6 -287.8)"/></svg>