<svg id="Laag_1" data-name="Laag 1" xmlns="http://www.w3.org/2000/svg" viewBox="0 0 141 141"><defs><style>.cls-1{fill:#39b54a;}.cls-2{fill:#fff;}</style></defs><title>home</title><circle class="cls-1" cx="70.5" cy="70.5" r="70.5"/><path class="cls-2" d="M607.7,581.4h17.5a3.9,3.9,0,0,0,3.9-3.9V530.2a3.9,3.9,0,0,0-1.6-3.1l-5.3-4a3.9,3.9,0,0,1-1.6-3.1V504.7a3.9,3.9,0,0,0-3.9-3.9h-5.2a3.9,3.9,0,0,0-3.9,3.9v3.9a1.9,1.9,0,0,1-3.1,1.6l-10.2-7.4a4,4,0,0,0-4.6,0L556.6,527a3.9,3.9,0,0,0-1.6,3.2v47.2a3.9,3.9,0,0,0,3.9,3.9h17.5a3.9,3.9,0,0,0,3.9-3.9V550.8a3.9,3.9,0,0,1,3.9-3.9h15.6a3.9,3.9,0,0,1,3.9,3.9v26.6A3.9,3.9,0,0,0,607.7,581.4Z" transform="translate(-520.6 -467.6)"/></svg>