<svg id="Laag_1" data-name="Laag 1" xmlns="http://www.w3.org/2000/svg" viewBox="0 0 141 141"><defs><style>.cls-1{fill:#39b54a;}.cls-2{fill:#fff;}</style></defs><title>phone</title><circle class="cls-1" cx="70.5" cy="70.5" r="70.5"/><path id="WhatsApp" class="cls-2" d="M814.7,360.2a44.3,44.3,0,0,1-65.5,38.4l-24.5,7.8,8-23.5a43.4,43.4,0,0,1-6.3-22.6A44.2,44.2,0,0,1,814.7,360.2Zm-44.2-36.9a37,37,0,0,0-37.1,36.9,36.5,36.5,0,0,0,7.1,21.6l-4.6,13.7,14.3-4.5A37,37,0,1,0,770.5,323.3Zm22.3,47a5.5,5.5,0,0,0-2.1-1.3c-1.1-.5-6.4-3.1-7.4-3.5s-1.7-.5-2.4.5-2.8,3.5-3.4,4.2-1.3.8-2.3,0.3a29.6,29.6,0,0,1-8.7-5.3,32.4,32.4,0,0,1-6-7.4,1.6,1.6,0,0,1,.5-2.2l1.6-1.9a7.2,7.2,0,0,0,1.1-1.8,2,2,0,0,0-.1-1.9c-0.3-.5-2.4-5.8-3.3-8s-1.8-1.8-2.4-1.8h-2.1a4,4,0,0,0-2.9,1.3,12,12,0,0,0-3.8,9c0,5.3,3.9,10.4,4.4,11.1s7.5,11.9,18.5,16.2,11,2.9,13,2.7,6.4-2.6,7.3-5.1S793.1,370.7,792.8,370.3Z" transform="translate(-697.5 -291.7)"/></svg>