<svg id="Laag_1" data-name="Laag 1" xmlns="http://www.w3.org/2000/svg" viewBox="0 0 141 141"><defs><style>.cls-1{fill:#ff0506;}.cls-2{fill:#fff;}</style></defs><title>winkelwagen</title><circle class="cls-1" cx="70.5" cy="70.5" r="70.5"/><circle class="cls-2" cx="56.9" cy="103.4" r="7.6"/><circle class="cls-2" cx="90.1" cy="103.4" r="7.6"/><path class="cls-2" d="M630,713.1H583.1a3.7,3.7,0,0,0-2.8,3.7,4.2,4.2,0,0,0,2.8,3.9h42.1l-2.4,8H581.5a3.4,3.4,0,0,0-2.6,3.4,3.9,3.9,0,0,0,2.6,3.7h39.3l-2.2,7.5H575.8L573,720.7l-0.9-7.6s-0.8-7-1.3-9.9-7.8-6.6-23.4-14c-3.7-1.5-6.8,5.2,0,8.7l12.4,5.8s2.9,1.7,3.1,3.9,5.3,39.5,5.3,39.5,0.2,5.2,4.9,5.2h47.2c4,0,4.7-4.1,4.7-4.1l9.4-27.8S637,713.1,630,713.1Z" transform="translate(-520.6 -659)"/></svg>