<svg xmlns="http://www.w3.org/2000/svg" xmlns:xlink="http://www.w3.org/1999/xlink" version="1.1" x="0px" y="0px" viewBox="0 0 24 30" style="enable-background:new 0 0 24 24;" xml:space="preserve"><g><g><g><g><path d="M18.5,24c-1.379,0-2.5-1.122-2.5-2.5s1.121-2.5,2.5-2.5s2.5,1.122,2.5,2.5S19.879,24,18.5,24z M18.5,20      c-0.827,0-1.5,0.673-1.5,1.5s0.673,1.5,1.5,1.5s1.5-0.673,1.5-1.5S19.327,20,18.5,20z"/></g><g><path d="M8.5,24C7.121,24,6,22.878,6,21.5S7.121,19,8.5,19s2.5,1.122,2.5,2.5S9.879,24,8.5,24z M8.5,20      C7.673,20,7,20.673,7,21.5S7.673,23,8.5,23s1.5-0.673,1.5-1.5S9.327,20,8.5,20z"/></g><g><path d="M20.5,18H8.959c-1.663,0-3.105-1.183-3.432-2.813L3.09,3H0.5C0.224,3,0,2.776,0,2.5S0.224,2,0.5,2h3      c0.238,0,0.443,0.168,0.49,0.402L6.508,14.99C6.74,16.155,7.771,17,8.959,17H20.5c0.276,0,0.5,0.224,0.5,0.5S20.776,18,20.5,18z      "/></g><g><path d="M6.499,16c-0.246,0-0.461-0.183-0.495-0.434c-0.036-0.273,0.156-0.525,0.43-0.562l14.664-1.955l0.417-1.67      c0.066-0.268,0.336-0.433,0.606-0.364c0.269,0.067,0.431,0.338,0.364,0.606l-0.5,2c-0.05,0.199-0.216,0.348-0.419,0.375l-15,2      C6.544,15.999,6.521,16,6.499,16z"/></g><g><path d="M11.5,6h-7C4.224,6,4,5.776,4,5.5S4.224,5,4.5,5h7C11.776,5,12,5.224,12,5.5S11.776,6,11.5,6z"/></g></g></g><g><g><g><path d="M18.5,11C15.468,11,13,8.533,13,5.5S15.468,0,18.5,0S24,2.467,24,5.5S21.532,11,18.5,11z M18.5,1      C16.019,1,14,3.019,14,5.5s2.019,4.5,4.5,4.5S23,7.981,23,5.5S20.981,1,18.5,1z"/></g></g><g><path d="M20.5,6h-4C16.224,6,16,5.776,16,5.5S16.224,5,16.5,5h4C20.776,5,21,5.224,21,5.5S20.776,6,20.5,6z"/></g><g><path d="M18.5,8C18.224,8,18,7.776,18,7.5v-4C18,3.224,18.224,3,18.5,3S19,3.224,19,3.5v4C19,7.776,18.776,8,18.5,8z"/></g></g></g><text x="0" y="39" fill="#000000" font-size="5px" font-weight="bold" font-family="'Helvetica Neue', Helvetica, Arial-Unicode, Arial, Sans-serif">Created by icon 54</text><text x="0" y="44" fill="#000000" font-size="5px" font-weight="bold" font-family="'Helvetica Neue', Helvetica, Arial-Unicode, Arial, Sans-serif">from the Noun Project</text></svg>