<svg id="Laag_1" data-name="Laag 1" xmlns="http://www.w3.org/2000/svg" viewBox="0 0 89.6 53.7"><defs><style>.cls-1{fill:#fff;}</style></defs><title>avocado</title><path class="cls-1" d="M89.5,25.6C90,20.2,81.9,15,74.6,11.7S55.5,4.8,44.7,2.8A20.7,20.7,0,0,0,37.6.4,21.7,21.7,0,0,0,28,.8H24.6C13.2,0.7,5.8,3.4,2.8,8.4-1.9,16-.3,29.5,4.1,36.8S18.4,50.7,30.7,52.7a74.5,74.5,0,0,0,12.2,1c11.1,0,21.7-2.4,29.9-6.7S88.7,33.8,89.5,25.6Zm-3.8-.1a2,2,0,0,1-.2.6C84,29,75,31.8,59.5,31.8a141.5,141.5,0,0,1-22.9-1.9c-11-1.8-19.7-4.7-25.3-8.2-3.2-2.1-7.5-5.5-6.2-9.4,2.1-6.4,8.2-7.4,16-7.8-2.9,2.5-5.7,5.6-4.8,9.2s6.5,6.5,16.6,8.2S49.4,22,51,19.2s0.8-8-1.5-11.6a127.1,127.1,0,0,1,23.3,7.6C82.9,19.8,86.1,23.6,85.7,25.5Z" transform="translate(0 0)"/></svg>