<svg id="Laag_1" data-name="Laag 1" xmlns="http://www.w3.org/2000/svg" viewBox="0 0 62 69.5"><defs><style>.cls-1{fill:#fff;}</style></defs><title>knoflook</title><path class="cls-1" d="M736.9,475.6c-2.5,1.4-8.1,11.4-7.2,11.5C732.9,487.3,739,474.4,736.9,475.6Zm31.2,18.5c-2.9-7.7-10.2-10.5-16.5-14.6s-6.2-23.5-6.3-23.6c-0.6-3.3-6-8.5-8.9-4.6-1.4,1.8.4,10.5,0.8,12.5-1.3,11.3-17.6,14.6-24,22.5s-9.4,26,4.2,28.1h0c1.2,2.8,12.8,9.9,18.7-.3,1.7,5.3,9.9,3.3,13.9.7,3.2,3.5,11.9-.3,14.7-2.6C770.5,507.4,770.7,500.8,768.1,494.1Zm-24.2-37.4c-2.3,3.3-6-.5-6.6-2.5C737.3,449.3,743.3,453.7,743.8,456.7Zm8.7,55.6c4.3-5.5,5.6-15.8,1-20.8-0.8-.8-2.5.9-2.1,1.8,7.7,8.2-4.2,28-14.6,19.3,2.7-4.7,3.9-10.7,1.2-14.2-0.8-1-.7,9.4-2.4,13.8-2.5,6.5-14.4,5.6-17-.3s2.6-13.1,3.9-18c0.2-.6-6.6,11.3-6.1,17-6.3-3.6-7.1-9.9-4.8-17.1s6-8.9,10.9-12.2,12.5-7.3,15.3-13c0.1,0.9.3,1.8,0.3,2.8s0.6-.2.6-0.4c0.1-1.8-.8-11.1-1.1-12.6,0.7,1.2,3,2.8,6.1.5-1.5,10.1.3,19.6,9.6,25.1,7.2,4.3,12.2,8.6,13.9,17.3S759.9,515.2,752.5,512.3Z" transform="translate(-707.7 -450)"/></svg>