<svg id="Laag_1" data-name="Laag 1" xmlns="http://www.w3.org/2000/svg" viewBox="0 0 231.2 301.8"><defs><style>.cls-1,.cls-4{fill:#783218;}.cls-2{fill:none;stroke:#75632d;stroke-width:2px;stroke-dasharray:4.98 2.99;}.cls-2,.cls-4,.cls-6{stroke-miterlimit:10;}.cls-3{fill:#f1f1f1;}.cls-4,.cls-6{stroke:#754c24;stroke-width:8px;}.cls-5{fill:#fff;}.cls-6{fill:#8c6239;}</style></defs><title>logo</title><circle id="Ovaal" class="cls-1" cx="115.6" cy="186.2" r="115.6"/><g id="Puntjes"><circle class="cls-2" cx="115.6" cy="186.2" r="110.4"/></g><path id="vork" class="cls-3" d="M356.4-126.6L314.3-71.2s-3.6,5.4,1.6,8.6,7.8,1.1,8.9-.3l42.3-55.6s7.3,3.9,11.4-.8L403-151.5a2.7,2.7,0,0,0-.8-2.8,2.2,2.2,0,0,0-2.9,0l-17.4,23-3.1-2.4L396-156.7a2.4,2.4,0,0,0-.7-2.8,2.1,2.1,0,0,0-2.9.1l-17.4,23-3.1-2.4,17.5-23a2.6,2.6,0,0,0-.8-2.8,2.4,2.4,0,0,0-3.1-.2l-17.5,23-2.9-2.2,17.5-23a2.5,2.5,0,0,0-.9-2.9,2.3,2.3,0,0,0-3-.1L354-137.6S350.7-132.5,356.4-126.6Z" transform="translate(-235.9 305.9)"/><path id="mes" class="cls-3" d="M345.2-95l5.7-4.3,28,36.9s4.1,5.8,10.3,1.1,1.9-10.1,1.9-10.1l-72.2-95.4s-6.8-7.8-15.1-1.5-2.8,14.7-2.8,14.7Z" transform="translate(-235.9 305.9)"/><path class="cls-4" d="M314-250.6s-20.4-10.5-13.5-29.8c9.8-18.2,27.8-8.9,27.8-8.9s8.1-13.4,21.3-12.5c14.7,0,21.5,13,21.5,13s16-9.9,27.5,9c7.3,20.2-12.5,29.2-12.5,29.2l-4.8,41.3v24.6a149.2,149.2,0,0,1-63.4,0c-0.1-17.8-.1-24.3-0.1-24.3Z" transform="translate(-235.9 305.9)"/><path class="cls-5" d="M349.8-222.6s4.3-20.7,3-23.9-2.2-2.9-3-3-3,1.1-3,3S348.6-222.7,349.8-222.6Z" transform="translate(-235.9 305.9)"/><path class="cls-5" d="M333.3-224s4.3-20.7,3-23.9-2.2-2.9-3-3-3,1.1-3,3S332.1-224.1,333.3-224Z" transform="translate(-235.9 305.9)"/><path class="cls-5" d="M367.8-224s4.3-20.7,3-23.9-2.2-2.9-3-3-3,1.1-3,3S366.6-224.1,367.8-224Z" transform="translate(-235.9 305.9)"/><path class="cls-6" d="M319.8-206.5c31.7,7,63.4,0,63.4,0" transform="translate(-235.9 305.9)"/><path class="cls-5" d="M308-26.2c-2.5-1.1-3.3-3-2.2-5.5l5.3-12.1c1.1-2.5,3-3.3,5.5-2.2l5.7,2.5c2.5,1.1,3.3,3,2.2,5.5l-0.9,2.1-2-.9,0.9-2.1a1.9,1.9,0,0,0-1.1-2.8L316-44.1a1.9,1.9,0,0,0-2.8,1.1l-5.4,12.2a1.9,1.9,0,0,0,1.1,2.8l5.5,2.4a1.9,1.9,0,0,0,2.8-1.1l0.9-2.1,2,0.9-0.9,2.1c-1.1,2.5-3,3.3-5.5,2.2Z" transform="translate(-235.9 305.9)"/><path class="cls-5" d="M335.7-17l-2-.5,0.6-2.3c-1.9.9-3.5,1.5-5.3,1.1l-1.3-.3c-2.6-.6-3.6-2.4-3-4.9l2.9-11.8,2,0.5-2.9,11.9a1.9,1.9,0,0,0,1.5,2.5l1.3,0.3a8.2,8.2,0,0,0,5.2-.7l3-12.1,2,0.5Z" transform="translate(-235.9 305.9)"/><path class="cls-5" d="M344.3-15.9l-2-.2L344-32.3l2,0.2Zm0-20,0.3-2.6,2.3,0.3-0.3,2.6Z" transform="translate(-235.9 305.9)"/><path class="cls-5" d="M359.8-27.9a1.9,1.9,0,0,0-2.2-2h-3.5a1.9,1.9,0,0,0-2,2.2v0.9c0,1.2.6,1.5,1.9,1.6l4.7,0.7c2.3,0.3,3.5,1.3,3.6,3.4v1.3c0.1,2.6-1.3,4.1-4,4.2h-4.1c-2.6.1-4.1-1.3-4.2-4v-0.8h2v1a1.9,1.9,0,0,0,2.2,2h4.1a1.9,1.9,0,0,0,2-2.2V-21c0-1.2-.6-1.5-1.9-1.6l-4.7-.7c-2.3-.3-3.5-1.3-3.6-3.4v-0.8c-0.1-2.6,1.3-4.1,4-4.2h3.5c2.6-.1,4.1,1.3,4.2,4v0.5h-2v-0.7Z" transform="translate(-235.9 305.9)"/><path class="cls-5" d="M365-36.1l-0.4-2.6,2.3-.4,0.4,2.6Zm5.4,19.2-2,.3-2.7-16,2-.3Z" transform="translate(-235.9 305.9)"/><path class="cls-5" d="M372.2-33.6l1.9-.6,0.7,2.2c1.1-1.8,2.2-3.2,3.9-3.7l1.3-.4c2.5-.8,4.3.1,5.1,2.6L388.9-22l-1.9.6L383.2-33a1.9,1.9,0,0,0-2.6-1.4l-1.3.4a8.2,8.2,0,0,0-4,3.3l3.8,11.8-1.9.6Z" transform="translate(-235.9 305.9)"/><path class="cls-5" d="M395-29a1.9,1.9,0,0,0,2.8.9l3.7-2a1.9,1.9,0,0,0,.9-2.8l-0.6-1,1.8-1,0.5,0.9c1.3,2.3.7,4.3-1.7,5.5l-3.8,2c-2.3,1.3-4.3.7-5.5-1.7l-3.8-7.1c-1.3-2.3-.7-4.3,1.7-5.5l3.8-2c2.3-1.2,4.3-.7,5.5,1.7l2.1,3.9-9.2,4.9Zm-3.1-10.2a1.9,1.9,0,0,0-.9,2.8l1.4,2.6,7.4-4-1.4-2.6a1.9,1.9,0,0,0-2.8-.9Z" transform="translate(-235.9 305.9)"/></svg>