<svg id="Laag_1" data-name="Laag 1" xmlns="http://www.w3.org/2000/svg" viewBox="0 0 43.2 43.1"><defs><style>.cls-1,.cls-2{fill:none;stroke:#fff;stroke-linecap:round;stroke-linejoin:round;}.cls-1{stroke-width:0.75px;}.cls-2{stroke-width:1.25px;}</style></defs><title>pizza</title><path class="cls-1" d="M632.4,441.9h0a4.2,4.2,0,0,1-.8,1.2h0a5,5,0,0,0-.8,1.2,3.2,3.2,0,0,0-.3,1.4h0a3.5,3.5,0,0,1-.3,1.4,4.2,4.2,0,0,1-.8,1.2h0a5,5,0,0,0-.8,1.2,3.2,3.2,0,0,0-.3,1.4,3.5,3.5,0,0,1-.3,1.4,4.2,4.2,0,0,1-.8,1.2h0a5,5,0,0,0-.8,1.2h0a8.5,8.5,0,0,0,2.6,1.1h0a4.2,4.2,0,0,1,.8-1.2h0a5,5,0,0,0,.8-1.2,3.2,3.2,0,0,0,.3-1.4,3.5,3.5,0,0,1,.3-1.4,4.2,4.2,0,0,1,.8-1.2h0a5,5,0,0,0,.8-1.2,3.2,3.2,0,0,0,.3-1.4h0a3.5,3.5,0,0,1,.3-1.4,4.2,4.2,0,0,1,.8-1.2h0a5,5,0,0,0,.8-1.2h0A7.3,7.3,0,0,0,632.4,441.9Z" transform="translate(-611.1 -422.3)"/><path class="cls-2" d="M650.3,448.8c-0.4-1-2.1-1.4-2.6-2.3s0.2-2.6-.3-3.5-2.3-1-3-1.9-0.2-2.6-.9-3.4-2.5-.6-3.2-1.4-0.6-2.5-1.4-3.2-2.5-.2-3.4-0.9-1-2.4-1.9-3-2.5.2-3.5-.3-1.3-2.2-2.3-2.6" transform="translate(-611.1 -422.3)"/><path class="cls-2" d="M629.1,422.9l-17.4,41.9,41.9-17.4A45.2,45.2,0,0,0,629.1,422.9Z" transform="translate(-611.1 -422.3)"/><path class="cls-1" d="M645.1,451a5.2,5.2,0,0,0-1.4-2.2,5.7,5.7,0,0,0-9.1,6.5" transform="translate(-611.1 -422.3)"/><path class="cls-1" d="M643.8,451.5a4.2,4.2,0,0,0-1-1.7,4.2,4.2,0,0,0-6,0,4.2,4.2,0,0,0-.7,5" transform="translate(-611.1 -422.3)"/><path class="cls-1" d="M621.5,441.1a5.3,5.3,0,0,1,4.2,1.7,5.7,5.7,0,1,1-8,8,0.3,0.3,0,0,1-.1-0.2" transform="translate(-611.1 -422.3)"/><path class="cls-1" d="M618.2,449.1l0.5,0.6a4.2,4.2,0,0,0,6-6,4.5,4.5,0,0,0-3.8-1.2" transform="translate(-611.1 -422.3)"/><path class="cls-1" d="M619.4,454h0Zm3.1,3.1h0a5.7,5.7,0,0,0-1.2-1.8,5.2,5.2,0,0,0-1.8-1.2,1.1,1.1,0,1,0-.8,2H619l-1.6,1.6a1.1,1.1,0,0,0,1.5,1.5l1.6-1.6V458h0a1.1,1.1,0,0,0,1.4.6A1.4,1.4,0,0,0,622.5,457.1Z" transform="translate(-611.1 -422.3)"/><path class="cls-1" d="M626.5,436.6h0Zm3.1-3.1h0a5.7,5.7,0,0,0-1.8,1.2,5.2,5.2,0,0,0-1.2,1.8,1.1,1.1,0,1,0,2,.8h0c0-.1.1-0.2,0.1-0.3l1.6,1.6a1.1,1.1,0,0,0,1.5-1.5l-1.6-1.6h0.3a1.1,1.1,0,0,0,.6-1.4A1.1,1.1,0,0,0,629.6,433.5Z" transform="translate(-611.1 -422.3)"/><path class="cls-1" d="M641.2,439.6h0Zm0,4.4h0a5.4,5.4,0,0,0,.4-2.2,7.8,7.8,0,0,0-.4-2.2,1.1,1.1,0,1,0-2,.8h0c0,0.1.1,0.2,0.1,0.3H637a1.1,1.1,0,1,0,0,2.2h2.3c0,0.1-.1.2-0.1,0.3h0a1.1,1.1,0,0,0,.6,1.4A1.1,1.1,0,0,0,641.2,444Z" transform="translate(-611.1 -422.3)"/><line class="cls-1" x1="17.1" y1="8.2" x2="17.1" y2="9.6"/><line class="cls-1" x1="13.6" y1="17.3" x2="15" y2="17.3"/><line class="cls-1" x1="12" y1="31.9" x2="13.5" y2="31.9"/><line class="cls-1" x1="32.9" y1="22.6" x2="32.9" y2="24"/><line class="cls-1" x1="17.7" y1="18.7" x2="17.7" y2="20.1"/><line class="cls-1" x1="22.2" y1="11.9" x2="23.2" y2="12.9"/><line class="cls-1" x1="13.2" y1="33.8" x2="14.2" y2="34.8"/><line class="cls-1" x1="23.7" y1="16.2" x2="25.1" y2="16.2"/><line class="cls-1" x1="24.6" y1="23.3" x2="26" y2="23.3"/><line class="cls-1" x1="3.9" y1="39.2" x2="4.9" y2="38.2"/></svg>