<svg id="Laag_1" data-name="Laag 1" xmlns="http://www.w3.org/2000/svg" viewBox="0 0 66.7 100.9"><defs><style>.cls-1{fill:#fff;}</style></defs><title>ui</title><path class="cls-1" d="M52.2,97.9a16,16,0,0,0,3.7-6.6A45.5,45.5,0,0,0,57.4,79,33.3,33.3,0,0,0,55,69.4,44.8,44.8,0,0,0,52,64c-0.9-1.4-.9-4.5-1.4-8.1,0.1,3.9-.3,5.8.7,8.6s2.6,3.9,3.3,6,1.7,6.1,1.7,8.1a52.2,52.2,0,0,1-1.1,10.9c-0.7,3.7-2.5,6.9-5.4,8.7-3-.6-6.5-1.6-8.5-3.4-4-3.4-7.6-9.2-8-14.2S36.7,70.5,42,67.4s5.6-5.6,6.6-10.4c-1.4,4.2-2.6,7.7-7,9.9-6.4,3.3-9.6,8.8-9.3,14a18.1,18.1,0,0,0,8.5,14.9,26.9,26.9,0,0,0,6.3,2.9c-8.3-1.9-9.1-2.8-11.5-5.5,0-.1-0.6-0.5-0.6-0.7-3-3.4-6.9-9.2-8.2-14.6a11.4,11.4,0,0,1-.4-5.7C29,63.5,34.4,60,39.8,56.4l3.9-2.7c3-2.3,3.8-8.5,4.5-11.9C47,46,45.7,51.2,43.3,53a45.1,45.1,0,0,1-4,2.5C33.6,59.3,28,62.9,25.5,72c-0.6,2.3-.2,4,0.4,6.3,1.4,5.6,5.3,11.6,8.5,15.1L34.9,94a14.8,14.8,0,0,0,5.5,3.7h0a32.6,32.6,0,0,1-5.5-2C26,91.4,20.1,82.3,19.7,74.9c-0.8-15.1,6.6-19.5,13.4-25.1,3.9-3.1,9.2-4.6,12.3-10.1a9.7,9.7,0,0,0,.7-6.4,28.9,28.9,0,0,0-1.6-4.7l3.5,1.4,4.2,1.8h0l2.1,1c-1.4,5,2.8,10.2,6.1,12.1a78.3,78.3,0,0,1,11.9,8.3,25.8,25.8,0,0,1,8.7,19.5A25.1,25.1,0,0,1,72.1,92c-3.9,3.2-10.2,5.7-15.3,6.8a27.9,27.9,0,0,0,4-7.7C63.6,83.8,64.1,75,63,65.7c-0.1-.9-1.6-8.9-3-12.2-2-5-5.7-9.5-6-10.4a22.6,22.6,0,0,1-2.1-9.7c-0.2,4-.3,5.5.5,8.4s5.1,7.8,6.8,13.1c3.3,10.1,2.5,23.4.1,33.8A15.6,15.6,0,0,1,56,94.3a15.9,15.9,0,0,0,1.4-3.2c2.4-8.4,3.4-12.2,2.3-21.5a28.5,28.5,0,0,0-2-7.2c-2.1-5-5.1-9.8-5.5-10.7s-1.6-8.4-1.7-13c0.1,3.9.4,11.1,1.4,13.9,0.3,1,3.1,5.2,5.1,10.4a41.2,41.2,0,0,1,1.9,7.8c0.9,4.3-.2,11.4-1.7,18.2a18.4,18.4,0,0,1-4.8,8.8H52.2Zm1.1-67.8A128.1,128.1,0,0,1,75.7,4.7C68.4,7.2,61.9,10.9,57,17.6,59.9,11.7,64.6,5.8,69.7-.1c-7,5-13.2,10.7-17,18.2L55.4,7.5a60.9,60.9,0,0,0-7.6,20.4c-2.7-1.2-5.7-2.2-5.7-2.2l-1.6,1.1c4.9,8.7,2.9,13,.5,14.6C36.2,44.8,29,48.9,25.5,52.6c-6.9,6.9-8.8,13.6-8.2,22.3,0.7,11.2,8.9,20.5,20,24.2,4.8,1.6,9.3,1.8,14.3,1.8,8,0,16.3-2.1,22.2-7A27.6,27.6,0,0,0,83.9,72.6a28.8,28.8,0,0,0-9.6-21.5,61.7,61.7,0,0,0-11.6-7.6c-1.9-1-7.7-5.5-5.7-11.9l-3.6-1.5h0ZM50.2,70.6c0.1,2.6,1.1,6,1.6,9.4a39.8,39.8,0,0,1,.1,7.3,27.2,27.2,0,0,1-2.1,9.5,5.5,5.5,0,0,1-2.3-2,18.7,18.7,0,0,1-2.1-4,17,17,0,0,1-1.2-3.9,12.7,12.7,0,0,1,2.4-9.3c2-2.8,2.4-3,3.1-6.3-0.9,2.9-1.6,3.2-3.7,5.7s-2.7,6.6-2.7,9.8a13,13,0,0,0,1.1,4.2,18.8,18.8,0,0,0,2,4.1,7.7,7.7,0,0,0,3.6,3h0.1a10,10,0,0,0,2.6-4.8c0.4-1.9.5-3.9,0.7-6.2a24.8,24.8,0,0,0-.5-7.2C52,76.4,50.7,73,50.2,70.6Z" transform="translate(-17.1 0.1)"/></svg>