<svg id="Laag_1" data-name="Laag 1" xmlns="http://www.w3.org/2000/svg" viewBox="0 0 125.3 30.1"><defs><style>.cls-1{fill:#00e84c;}</style></defs><title>vork groen</title><path id="vork" class="cls-1" d="M935.1,195.6h69.6s6.5-.4,5.9-6.4-3.9-6.8-5.6-6.8H935.1s-1.3-8-7.5-8.4H887.1a2.7,2.7,0,0,0-1.8,2.3,2.2,2.2,0,0,0,1.7,2.3h28.8v3.9H887.1a2.3,2.3,0,0,0-1.8,2.2,2.1,2.1,0,0,0,1.8,2.2H916v3.9H887.1a2.5,2.5,0,0,0-1.8,2.3,2.4,2.4,0,0,0,1.7,2.5h28.9v3.6H887a2.5,2.5,0,0,0-1.8,2.4,2.3,2.3,0,0,0,1.7,2.4h40.7S933.7,203.6,935.1,195.6Z" transform="translate(-885.3 -173.9)"/></svg>